<svg xmlns="http://www.w3.org/2000/svg">
  <symbol id="aether" viewBox="0 0 250 250">
    <path d="M125 0a125 125 0 1 0 125 125A125 125 0 0 0 125 0zm0 235c-52.47 0-95-49.25-95-110S72.53 15 125 15s95 49.25 95 110-42.53 110-95 110z"/></symbol>
  <symbol id="air" viewBox="0 0 285.93 250">
    <path d="M284.71 236.54L150.73 4.49a9 9 0 0 0-15.54 0L1.22 236.54A9 9 0 0 0 9 250h268a9 9 0 0 0 7.71-13.46zM178.74 113h-89.5L134 35.53zM24.35 225.44L75.43 137h117.13l51.08 88.48z"/></symbol>
  <symbol id="earth" viewBox="0 0 285.93 250">
    <path d="M276.94 0H9a9 9 0 0 0-7.78 13.46l134 232.06a9 9 0 0 0 15.54 0l134-232.06A9 9 0 0 0 276.94 0zM107.18 137h89.5l-44.75 77.51zm103.32-24H93.37L42.29 24.56h219.29z"/></symbol>
<symbol id="fire" viewBox="0 0 285.93 250">
  <path d="M284.71 236.54L150.73 4.49a9 9 0 0 0-15.54 0L1.22 236.54A9 9 0 0 0 9 250h268a9 9 0 0 0 7.71-13.46zm-260.36-11.1L134 35.53l109.64 189.91z"/></symbol>
<symbol id="spirit" viewBox="0 0 210 297">
  <g stroke="#000">
  <path fill="none" stroke-width="2.27" d="M50.247 52.448l75.37-.534-37.418 59.6z"/>
<path fill="none" stroke-width="3.27" d="M88.199 111.515l40.593-60.13"/>
<path stroke-width=".37" d="M88.99 112.416c-.271.17-1.073.706-.815.51.287-.217.602-.386.904-.577l.042-.022a.198.198 0 0 1 .033-.017c-.784.5-1.121.688-.801.508.032-.028.056-.062.09-.087.02-.045-.003-.108.03-.154.021-.013.036-.052.035-.08v-.002l.004.009.901-.523c.02.047-.003-.01.004.015-.006.047-.007.097-.012.145-.043.054-.07-.02-.043.115-.004.06-.029.113-.076.14-.211.36-.013.035-.921.61l-.067.04c.27-.174 1.09-.68.813-.52-.31.18-.608.385-.912.577l.792-.686z"/>
<path stroke-width=".2" d="M89.694 111.526c-.05.079-.112.152-.162.23-.016.022-.005.063-.026.08-.024.021-.018-.003-.04.04-.017.022-.028.014-.03.052-.004.04.006.08-.01.12-.043-.014-.03.032-.055.047-.012.022.011.065.007.082-.001.007-.015-.002-.02.002-.007.005-.007.014-.01.021-.012.03-.033.029-.042.06-.01.036-.007.073-.01.11 0 .05-.038.061-.05.101a.146.146 0 0 0-.015.066c-.004.038 0 .075.004.113-.19.316-.585.638-.952.586a.42.42 0 0 0-.096-.017c.289-.16.574-.326.865-.48.016-.008-.008.04-.023.05-.293.173-.56.41-.885.511-.664.209 1.175-.652.843-.497-.007.005-.012.013-.018.02l-.923.433a.415.415 0 0 1 .01-.043c.093-.377-.271 1.073.882-.55.192-.269-.571.33-.855.498-.013.007.03 0 .042-.007.298-.174.594-.351.891-.527.026.002.054.01.073-.012.217-.302-1.148.742-.786.446.04.028.016-.032.02-.062 0-.032-.007-.063.001-.093.017-.053-.004-.08.053-.105.03-.018.008-.063.013-.093.003-.036-.006-.078.026-.1.005-.004.012-.007.014-.013.004-.012-.011-.036.002-.039.039-.007.022.078.029-.009-.009-.046.017-.08.015-.13.05.009.054.03.05-.032.002-.034-.015-.075.007-.1.025-.033.013-.049.028-.072.007-.013.031.007.042-.003.007-.006.007-.018.01-.027.025-.103.107-.162.152-.256l.93-.4z"/><path fill="none" stroke-width="3" d="M89.417 33.374L50.49 92.728h74.771z"/><path stroke-width=".2" d="M126.38 91.936c.003.137.021.276.071.404.018.061.044.117.069.175.003.021.01-.005.014 0 .022.026.044.077.059.108.042.05.04.027.069.078.03.03.04.07.05.11.015.038.01.081.032.115.016.054.044.092.051.15.003.015.004.09-.01.063.031-.016.055.06.067.088-.004-.009.012.03.008.023-.065-.127.01.015.024.011.032.025.043.055.044.096-.016-.06.032.037.042.057.213.39-.562.477-.853.646-.057 0-.114 0-.17-.002-.022.007-.046-.007-.068 0-.019.005-.03.026-.05.033-.072.027-.005-.008-.06.023.011.01-.076.015-.069.011.284-.164 1.172-.582.86-.478-1.335.448-.55.536-.938.49-.035-.006-.07-.012-.106-.01-.038 0-.075-.002-.113 0h-.09l-.098-.001c-.008.008-.04-.007-.049 0-.006.006-.017.026-.01.022.288-.158.572-.325.858-.488-.277.236-.064.056-.906.528-.008.004-.02-.002-.029 0-.006.002-.02.013-.015.01 1.623-.927.65-.372-.035.018a.422.422 0 0 0-.11-.021c-.03-.003-.06-.001-.089 0-.04 0-.08-.002-.119 0h-.071l.823-.599h.072c.04.002.08 0 .12 0 .03.002.062.004.093.008.034.002.057.012.082-.015-1.798 1.037-.471.259.05-.024.281-.153-.556.315-.832.476-.006.004.013-.005.02-.007.883-.509.562-.524.97-.505l.1-.001h.088c.04.002.078.001.116.005.033.004.066.009.098.004.31-.076-1.126.587-.827.478.338-.124.628-.38.954-.528.067-.017.127-.037.198-.025.052-.003.107-.001.153-.027-.283.167-.572.325-.85.502-.026.016.05.035.033.003-.005-.009-.012-.017-.018-.025-.015-.037-.034-.046-.064-.099.004-.029.027.01.003-.016-.027-.03-.057-.053-.064-.084-.002-.035-.039-.036-.055-.07-.02-.038-.028-.067-.013-.107.007-.054-.017-.046-.026-.102-.029-.05-.034-.096-.05-.148-.004-.034-.005-.048-.03-.078a.315.315 0 0 1-.073-.086.545.545 0 0 0-.076-.11c-.028-.058-.047-.122-.068-.186a1.605 1.605 0 0 1-.08-.42l.892-.473z"/><path fill="none" stroke-width="2.85" d="M88.566 32.505l-40.128 57.77.117.391 40.012-58.16h-.001z"/><path fill="none" stroke-width="1.8" d="M47.715 90.21c-1.7 3.198-1.719 3.333-1.719 3.333l2.64-.17-.095-.29"/><path stroke-width="1.8" d="M49.581 91.44c.135.003.27.002.404 0 .067-.003.135 0 .202-.002.088-.017.14.037.212.073.012.002.025 0 .035.007.017.01.025.032.042.043.042.027.031-.059.114.027.027.029.053.11.076.073.041.009.098.155.08.128.029.01.082.113.066.05.05-.03.108-.012.149.02.036.035.083.08.13.103 0-.006-.002-.02.004-.018.014.006.02.023.033.033.031.024.078.025.114.04.039.051.028.065.042.031l-1.199.797-.038-.035.001.01a.887.887 0 0 1-.173-.086.685.685 0 0 0-.109-.075c-.043.028-.115-.007-.156-.025-.038-.043-.079-.083-.113-.128-.057-.1.008-.031-.03-.045a1.084 1.084 0 0 1-.088-.094c.003.052-.144-.061-.18-.068-.057-.03-.114-.013-.177-.015-.065-.003-.13 0-.196-.002a11.29 11.29 0 0 0-.402 0l1.157-.841z"/>
<path fill="none" stroke-width=".9" d="M88.566 30.389c1.09.953 1.226.953 1.226.953"/> </g> 
</symbol>
<symbol id="water" viewBox="0 0 285.93 250"><path d="M1.22 13.46l134 232.06a9 9 0 0 0 15.54 0l134-232.06A9 9 0 0 0 276.94 0H9a9 9 0 0 0-7.78 13.46zm260.36 11.1L151.93 214.47 42.29 24.56z"/></symbol>
</svg>
